STARTFONT 2.1
FONT -FontForge-Merriweather-Book-R-Normal--10-100-75-75-P-59-ISO10646-1
SIZE 10 75 75
FONTBOUNDINGBOX 10 13 0 -3
COMMENT "Generated by fontforge, http://fontforge.sourceforge.net"
COMMENT "Copyright 2016 The Merriweather Project Authors (https://github.com/EbenSorkin/Merriweather), with Reserved Font Name "Merriweather"."
STARTPROPERTIES 39
FOUNDRY "FontForge"
FAMILY_NAME "Merriweather"
WEIGHT_NAME "Book"
SLANT "R"
SETWIDTH_NAME "Normal"
ADD_STYLE_NAME ""
PIXEL_SIZE 10
POINT_SIZE 100
RESOLUTION_X 75
RESOLUTION_Y 75
SPACING "P"
AVERAGE_WIDTH 59
CHARSET_REGISTRY "ISO10646"
CHARSET_ENCODING "1"
FONTNAME_REGISTRY ""
CHARSET_COLLECTIONS "ISO10646-1"
FONT_NAME "Merriweather-Regular"
FACE_NAME "Merriweather Regular"
COPYRIGHT "Copyright 2016 The Merriweather Project Authors (https://github.com/EbenSorkin/Merriweather), with Reserved Font Name "Merriweather"."
FONT_VERSION "2.002"
FONT_ASCENT 8
FONT_DESCENT 2
UNDERLINE_POSITION -1
UNDERLINE_THICKNESS 1
X_HEIGHT 5
CAP_HEIGHT 7
RAW_ASCENT 800
RAW_DESCENT 200
NORM_SPACE 2
RELATIVE_WEIGHT 40
RELATIVE_SETWIDTH 50
SUPERSCRIPT_X 0
SUPERSCRIPT_Y 3
SUPERSCRIPT_SIZE 6
SUBSCRIPT_X 0
SUBSCRIPT_Y 0
SUBSCRIPT_SIZE 6
AVG_LOWERCASE_WIDTH 56
AVG_UPPERCASE_WIDTH 69
ENDPROPERTIES
CHARS 95
STARTCHAR space
ENCODING 32
SWIDTH 237 0
DWIDTH 2 0
BBX 1 1 0 0
BITMAP
00
ENDCHAR
STARTCHAR exclam
ENCODING 33
SWIDTH 354 0
DWIDTH 4 0
BBX 1 10 1 0
BITMAP
80
80
80
80
80
80
80
80
00
80
ENDCHAR
STARTCHAR quotedbl
ENCODING 34
SWIDTH 612 0
DWIDTH 6 0
BBX 4 4 1 4
BITMAP
90
90
90
90
ENDCHAR
STARTCHAR numbersign
ENCODING 35
SWIDTH 744 0
DWIDTH 7 0
BBX 6 8 1 0
BITMAP
48
48
FC
48
50
FC
50
50
ENDCHAR
STARTCHAR dollar
ENCODING 36
SWIDTH 659 0
DWIDTH 7 0
BBX 5 10 1 -1
BITMAP
20
70
90
80
60
30
08
88
F0
20
ENDCHAR
STARTCHAR percent
ENCODING 37
SWIDTH 1037 0
DWIDTH 10 0
BBX 9 8 1 0
BITMAP
E400
A400
A800
AB00
D480
1480
1480
2300
ENDCHAR
STARTCHAR ampersand
ENCODING 38
SWIDTH 756 0
DWIDTH 8 0
BBX 6 8 1 0
BITMAP
70
90
90
60
EC
B4
98
FC
ENDCHAR
STARTCHAR quotesingle
ENCODING 39
SWIDTH 353 0
DWIDTH 4 0
BBX 1 4 1 4
BITMAP
80
80
80
80
ENDCHAR
STARTCHAR parenleft
ENCODING 40
SWIDTH 430 0
DWIDTH 4 0
BBX 3 10 1 -2
BITMAP
60
80
80
80
80
80
80
80
40
20
ENDCHAR
STARTCHAR parenright
ENCODING 41
SWIDTH 430 0
DWIDTH 4 0
BBX 3 10 1 -2
BITMAP
80
40
40
20
20
20
40
40
40
80
ENDCHAR
STARTCHAR asterisk
ENCODING 42
SWIDTH 643 0
DWIDTH 6 0
BBX 5 5 1 3
BITMAP
20
B8
60
D8
20
ENDCHAR
STARTCHAR plus
ENCODING 43
SWIDTH 661 0
DWIDTH 7 0
BBX 5 5 1 1
BITMAP
20
20
F8
20
20
ENDCHAR
STARTCHAR comma
ENCODING 44
SWIDTH 335 0
DWIDTH 3 0
BBX 2 4 1 -2
BITMAP
80
40
80
80
ENDCHAR
STARTCHAR hyphen
ENCODING 45
SWIDTH 628 0
DWIDTH 6 0
BBX 4 1 1 3
BITMAP
F0
ENDCHAR
STARTCHAR period
ENCODING 46
SWIDTH 265 0
DWIDTH 3 0
BBX 1 1 1 0
BITMAP
80
ENDCHAR
STARTCHAR slash
ENCODING 47
SWIDTH 431 0
DWIDTH 4 0
BBX 4 10 0 -2
BITMAP
10
10
20
20
20
20
40
40
40
80
ENDCHAR
STARTCHAR zero
ENCODING 48
SWIDTH 643 0
DWIDTH 6 0
BBX 5 7 1 0
BITMAP
70
90
88
88
88
90
70
ENDCHAR
STARTCHAR one
ENCODING 49
SWIDTH 440 0
DWIDTH 4 0
BBX 4 7 0 0
BITMAP
20
E0
20
20
20
20
70
ENDCHAR
STARTCHAR two
ENCODING 50
SWIDTH 598 0
DWIDTH 6 0
BBX 6 7 0 0
BITMAP
70
88
08
18
10
24
F8
ENDCHAR
STARTCHAR three
ENCODING 51
SWIDTH 560 0
DWIDTH 6 0
BBX 4 9 1 -2
BITMAP
E0
B0
10
20
E0
10
10
30
C0
ENDCHAR
STARTCHAR four
ENCODING 52
SWIDTH 644 0
DWIDTH 6 0
BBX 6 8 0 -1
BITMAP
10
10
20
20
48
48
FC
08
ENDCHAR
STARTCHAR five
ENCODING 53
SWIDTH 594 0
DWIDTH 6 0
BBX 4 9 1 -2
BITMAP
F0
80
80
E0
10
10
10
30
C0
ENDCHAR
STARTCHAR six
ENCODING 54
SWIDTH 664 0
DWIDTH 7 0
BBX 5 8 1 0
BITMAP
10
60
C0
F0
88
88
88
70
ENDCHAR
STARTCHAR seven
ENCODING 55
SWIDTH 588 0
DWIDTH 6 0
BBX 5 8 0 -1
BITMAP
78
88
08
10
10
10
20
20
ENDCHAR
STARTCHAR eight
ENCODING 56
SWIDTH 633 0
DWIDTH 6 0
BBX 5 8 1 0
BITMAP
70
90
90
60
B0
98
88
F0
ENDCHAR
STARTCHAR nine
ENCODING 57
SWIDTH 660 0
DWIDTH 7 0
BBX 5 9 1 -2
BITMAP
60
90
88
88
88
78
10
20
40
ENDCHAR
STARTCHAR colon
ENCODING 58
SWIDTH 344 0
DWIDTH 3 0
BBX 1 6 1 0
BITMAP
80
00
00
00
00
80
ENDCHAR
STARTCHAR semicolon
ENCODING 59
SWIDTH 344 0
DWIDTH 3 0
BBX 2 8 1 -2
BITMAP
80
00
00
00
80
40
80
80
ENDCHAR
STARTCHAR less
ENCODING 60
SWIDTH 669 0
DWIDTH 7 0
BBX 5 6 1 0
BITMAP
08
30
C0
C0
30
08
ENDCHAR
STARTCHAR equal
ENCODING 61
SWIDTH 653 0
DWIDTH 7 0
BBX 5 4 1 1
BITMAP
F8
00
00
F8
ENDCHAR
STARTCHAR greater
ENCODING 62
SWIDTH 669 0
DWIDTH 7 0
BBX 5 6 1 0
BITMAP
80
60
18
10
60
80
ENDCHAR
STARTCHAR question
ENCODING 63
SWIDTH 487 0
DWIDTH 5 0
BBX 5 10 0 0
BITMAP
E0
10
08
10
30
60
40
00
00
60
ENDCHAR
STARTCHAR at
ENCODING 64
SWIDTH 1078 0
DWIDTH 11 0
BBX 9 11 1 -3
BITMAP
1E00
2100
4080
9E80
A480
A480
AD00
B600
8000
4000
3C00
ENDCHAR
STARTCHAR A
ENCODING 65
SWIDTH 692 0
DWIDTH 7 0
BBX 7 8 0 0
BITMAP
10
30
28
28
48
7C
44
CE
ENDCHAR
STARTCHAR B
ENCODING 66
SWIDTH 685 0
DWIDTH 7 0
BBX 6 8 0 0
BITMAP
F8
44
44
78
44
44
44
F8
ENDCHAR
STARTCHAR C
ENCODING 67
SWIDTH 653 0
DWIDTH 7 0
BBX 6 8 0 0
BITMAP
3C
44
40
C0
C0
40
44
3C
ENDCHAR
STARTCHAR D
ENCODING 68
SWIDTH 758 0
DWIDTH 8 0
BBX 7 8 0 0
BITMAP
7C
46
42
42
42
42
44
F8
ENDCHAR
STARTCHAR E
ENCODING 69
SWIDTH 651 0
DWIDTH 7 0
BBX 6 8 0 0
BITMAP
FC
44
40
78
48
40
44
FC
ENDCHAR
STARTCHAR F
ENCODING 70
SWIDTH 619 0
DWIDTH 6 0
BBX 6 8 0 0
BITMAP
FC
44
40
48
78
40
40
F0
ENDCHAR
STARTCHAR G
ENCODING 71
SWIDTH 740 0
DWIDTH 7 0
BBX 7 8 0 0
BITMAP
3E
42
40
C0
CE
42
42
3E
ENDCHAR
STARTCHAR H
ENCODING 72
SWIDTH 828 0
DWIDTH 8 0
BBX 8 8 0 0
BITMAP
67
42
42
7E
42
42
42
E7
ENDCHAR
STARTCHAR I
ENCODING 73
SWIDTH 403 0
DWIDTH 4 0
BBX 2 8 1 0
BITMAP
C0
C0
C0
C0
C0
C0
C0
C0
ENDCHAR
STARTCHAR J
ENCODING 74
SWIDTH 381 0
DWIDTH 4 0
BBX 3 10 0 -2
BITMAP
E0
60
60
60
60
60
60
40
40
80
ENDCHAR
STARTCHAR K
ENCODING 75
SWIDTH 726 0
DWIDTH 7 0
BBX 7 8 0 0
BITMAP
EE
44
48
50
68
4C
44
E6
ENDCHAR
STARTCHAR L
ENCODING 76
SWIDTH 634 0
DWIDTH 6 0
BBX 6 8 0 0
BITMAP
E0
40
40
40
40
44
44
FC
ENDCHAR
STARTCHAR M
ENCODING 77
SWIDTH 990 0
DWIDTH 10 0
BBX 10 8 0 0
BITMAP
6380
5300
5300
5480
5C80
4C80
4880
E9C0
ENDCHAR
STARTCHAR N
ENCODING 78
SWIDTH 799 0
DWIDTH 8 0
BBX 8 8 0 0
BITMAP
E7
62
52
5A
4A
46
46
E2
ENDCHAR
STARTCHAR O
ENCODING 79
SWIDTH 722 0
DWIDTH 7 0
BBX 7 8 0 0
BITMAP
38
44
42
C2
C2
42
44
38
ENDCHAR
STARTCHAR P
ENCODING 80
SWIDTH 649 0
DWIDTH 6 0
BBX 6 8 0 0
BITMAP
7C
44
44
44
78
40
40
F0
ENDCHAR
STARTCHAR Q
ENCODING 81
SWIDTH 727 0
DWIDTH 7 0
BBX 9 10 0 -2
BITMAP
3C00
4400
4200
C200
C200
4200
4400
3800
0600
0180
ENDCHAR
STARTCHAR R
ENCODING 82
SWIDTH 704 0
DWIDTH 7 0
BBX 7 8 0 0
BITMAP
78
44
44
44
78
48
44
E6
ENDCHAR
STARTCHAR S
ENCODING 83
SWIDTH 594 0
DWIDTH 6 0
BBX 5 8 1 0
BITMAP
F0
90
80
E0
30
18
90
F0
ENDCHAR
STARTCHAR T
ENCODING 84
SWIDTH 692 0
DWIDTH 7 0
BBX 7 8 0 0
BITMAP
FE
92
92
10
10
10
10
38
ENDCHAR
STARTCHAR U
ENCODING 85
SWIDTH 740 0
DWIDTH 7 0
BBX 7 8 0 0
BITMAP
E6
42
42
42
42
42
44
38
ENDCHAR
STARTCHAR V
ENCODING 86
SWIDTH 670 0
DWIDTH 7 0
BBX 7 8 0 0
BITMAP
E6
44
44
68
28
28
28
10
ENDCHAR
STARTCHAR W
ENCODING 87
SWIDTH 1000 0
DWIDTH 10 0
BBX 10 8 0 0
BITMAP
EEC0
4480
4C80
4C80
2A80
3300
3300
3300
ENDCHAR
STARTCHAR X
ENCODING 88
SWIDTH 712 0
DWIDTH 7 0
BBX 7 8 0 0
BITMAP
EE
64
28
10
18
28
44
EE
ENDCHAR
STARTCHAR Y
ENCODING 89
SWIDTH 644 0
DWIDTH 6 0
BBX 7 8 0 0
BITMAP
CE
44
68
28
10
10
10
38
ENDCHAR
STARTCHAR Z
ENCODING 90
SWIDTH 654 0
DWIDTH 7 0
BBX 6 8 0 0
BITMAP
7C
48
18
10
30
20
44
FC
ENDCHAR
STARTCHAR bracketleft
ENCODING 91
SWIDTH 428 0
DWIDTH 4 0
BBX 2 10 1 -2
BITMAP
C0
80
80
80
80
80
80
80
80
C0
ENDCHAR
STARTCHAR backslash
ENCODING 92
SWIDTH 431 0
DWIDTH 4 0
BBX 4 10 0 -2
BITMAP
80
40
40
40
40
20
20
20
10
10
ENDCHAR
STARTCHAR bracketright
ENCODING 93
SWIDTH 428 0
DWIDTH 4 0
BBX 2 10 1 -2
BITMAP
C0
40
40
40
40
40
40
40
40
C0
ENDCHAR
STARTCHAR asciicircum
ENCODING 94
SWIDTH 666 0
DWIDTH 7 0
BBX 5 7 1 1
BITMAP
20
20
60
50
50
90
88
ENDCHAR
STARTCHAR underscore
ENCODING 95
SWIDTH 835 0
DWIDTH 8 0
BBX 8 1 0 -2
BITMAP
FF
ENDCHAR
STARTCHAR grave
ENCODING 96
SWIDTH 333 0
DWIDTH 3 0
BBX 2 2 0 7
BITMAP
80
40
ENDCHAR
STARTCHAR a
ENCODING 97
SWIDTH 561 0
DWIDTH 6 0
BBX 5 6 0 0
BITMAP
70
08
38
48
C8
78
ENDCHAR
STARTCHAR b
ENCODING 98
SWIDTH 607 0
DWIDTH 6 0
BBX 6 9 0 0
BITMAP
C0
40
40
78
48
44
44
48
70
ENDCHAR
STARTCHAR c
ENCODING 99
SWIDTH 513 0
DWIDTH 5 0
BBX 5 6 0 0
BITMAP
78
48
80
80
40
78
ENDCHAR
STARTCHAR d
ENCODING 100
SWIDTH 621 0
DWIDTH 6 0
BBX 6 9 0 0
BITMAP
18
08
08
38
48
C8
C8
48
7C
ENDCHAR
STARTCHAR e
ENCODING 101
SWIDTH 544 0
DWIDTH 5 0
BBX 5 6 0 0
BITMAP
30
48
F8
C0
40
78
ENDCHAR
STARTCHAR f
ENCODING 102
SWIDTH 400 0
DWIDTH 4 0
BBX 4 8 0 0
BITMAP
30
40
F0
40
40
40
40
E0
ENDCHAR
STARTCHAR g
ENCODING 103
SWIDTH 607 0
DWIDTH 6 0
BBX 6 9 0 -3
BITMAP
7C
48
48
30
40
78
44
84
78
ENDCHAR
STARTCHAR h
ENCODING 104
SWIDTH 659 0
DWIDTH 7 0
BBX 6 9 0 0
BITMAP
C0
40
40
78
4C
44
44
44
EC
ENDCHAR
STARTCHAR i
ENCODING 105
SWIDTH 333 0
DWIDTH 3 0
BBX 3 8 0 0
BITMAP
40
00
C0
40
40
40
40
E0
ENDCHAR
STARTCHAR j
ENCODING 106
SWIDTH 317 0
DWIDTH 3 0
BBX 2 11 0 -3
BITMAP
40
00
C0
40
40
40
40
40
40
40
C0
ENDCHAR
STARTCHAR k
ENCODING 107
SWIDTH 600 0
DWIDTH 6 0
BBX 6 9 0 0
BITMAP
C0
40
40
4C
48
50
70
48
EC
ENDCHAR
STARTCHAR l
ENCODING 108
SWIDTH 333 0
DWIDTH 3 0
BBX 3 9 0 0
BITMAP
C0
40
40
40
40
40
40
40
E0
ENDCHAR
STARTCHAR m
ENCODING 109
SWIDTH 995 0
DWIDTH 10 0
BBX 10 6 0 0
BITMAP
FB80
4480
4480
4480
4480
EDC0
ENDCHAR
STARTCHAR n
ENCODING 110
SWIDTH 664 0
DWIDTH 7 0
BBX 6 6 0 0
BITMAP
F8
44
44
44
44
EC
ENDCHAR
STARTCHAR o
ENCODING 111
SWIDTH 608 0
DWIDTH 6 0
BBX 6 6 0 0
BITMAP
38
48
CC
CC
48
70
ENDCHAR
STARTCHAR p
ENCODING 112
SWIDTH 628 0
DWIDTH 6 0
BBX 6 9 0 -3
BITMAP
F8
4C
44
44
48
78
40
40
E0
ENDCHAR
STARTCHAR q
ENCODING 113
SWIDTH 609 0
DWIDTH 6 0
BBX 6 9 0 -3
BITMAP
38
48
C8
C8
48
78
08
08
1C
ENDCHAR
STARTCHAR r
ENCODING 114
SWIDTH 458 0
DWIDTH 5 0
BBX 4 6 0 0
BITMAP
D0
60
40
40
40
F0
ENDCHAR
STARTCHAR s
ENCODING 115
SWIDTH 505 0
DWIDTH 5 0
BBX 4 6 1 0
BITMAP
E0
A0
C0
60
90
E0
ENDCHAR
STARTCHAR t
ENCODING 116
SWIDTH 407 0
DWIDTH 4 0
BBX 4 8 0 0
BITMAP
40
40
F0
40
40
40
40
70
ENDCHAR
STARTCHAR u
ENCODING 117
SWIDTH 632 0
DWIDTH 6 0
BBX 6 6 0 0
BITMAP
C8
48
48
48
48
7C
ENDCHAR
STARTCHAR v
ENCODING 118
SWIDTH 568 0
DWIDTH 6 0
BBX 6 6 0 0
BITMAP
CC
48
48
30
30
20
ENDCHAR
STARTCHAR w
ENCODING 119
SWIDTH 839 0
DWIDTH 8 0
BBX 9 6 0 0
BITMAP
CB80
5900
5500
5600
2600
2600
ENDCHAR
STARTCHAR x
ENCODING 120
SWIDTH 595 0
DWIDTH 6 0
BBX 6 6 0 0
BITMAP
EC
68
30
30
58
DC
ENDCHAR
STARTCHAR y
ENCODING 121
SWIDTH 572 0
DWIDTH 6 0
BBX 6 9 0 -3
BITMAP
CC
48
48
50
30
30
10
20
40
ENDCHAR
STARTCHAR z
ENCODING 122
SWIDTH 554 0
DWIDTH 6 0
BBX 5 6 0 0
BITMAP
78
90
30
20
48
F8
ENDCHAR
STARTCHAR braceleft
ENCODING 123
SWIDTH 508 0
DWIDTH 5 0
BBX 3 10 1 -2
BITMAP
60
80
40
40
80
40
40
40
80
60
ENDCHAR
STARTCHAR bar
ENCODING 124
SWIDTH 422 0
DWIDTH 4 0
BBX 1 10 2 -1
BITMAP
80
80
80
80
80
80
80
80
80
80
ENDCHAR
STARTCHAR braceright
ENCODING 125
SWIDTH 508 0
DWIDTH 5 0
BBX 4 10 1 -2
BITMAP
C0
20
40
40
30
40
40
20
20
C0
ENDCHAR
STARTCHAR asciitilde
ENCODING 126
SWIDTH 692 0
DWIDTH 7 0
BBX 5 2 1 2
BITMAP
48
B0
ENDCHAR
ENDFONT
